<?xml version="1.0" encoding="iso-8859-1"?>
<!-- Generator: Adobe Illustrator 19.0.0, SVG Export Plug-In . SVG Version: 6.00 Build 0)  -->
<svg version="1.1" id="Capa_1" xmlns="http://www.w3.org/2000/svg" xmlns:xlink="http://www.w3.org/1999/xlink" x="0px" y="0px"
	 viewBox="0 0 490.866 490.866" style="enable-background:new 0 0 490.866 490.866;" xml:space="preserve">
<g>
	<path d="M33.754,460.049l41.7-2.8c8.8-0.6,16-6,19.1-13.4l183.2,7.9c20.4,2.2,39.5-0.3,57.5-9.7l5.2-2.7l138.5-81
		c6.8-4,11.6-10.9,11.9-18.5c0.3-9.3-5.1-19.6-18.3-20.5c-9.4-0.7-28.8,9.8-34.1,12.5c-18.9,9.5-45.2,24.4-62.5,36.3
		c-1.2,0.8-2.8,1.9-4,2.7c-7.8,5-16,8.3-25.1,10.3c-50.2,10.7-123.3,11.8-123.3,11.8l-4.3,0.2c-3.2,0.2-6.1-2.1-6.5-5.2
		c-0.5-3.4,2-6.6,5.6-6.9l108.7-10.3c12-1.3,21.5-12.5,20.2-25.1s-12.9-21.8-24.9-20.5l-96.7-1.2c-6.6-0.1-17.1-1.7-23.4-3.6
		c-62.3-18.2-97.5-1.2-116.2,6.8c-4.2-6.9-12.1-11.4-20.9-10.8l-41.7,2.8c-13.9,0.9-24.3,12.5-23.4,25.9l6.7,92.6
		C7.854,450.949,19.954,461.049,33.754,460.049z M49.054,410.749c7.8,0,14.2,6.1,14.2,13.7s-6.4,13.7-14.2,13.7s-14.2-6.1-14.2-13.7
		C34.854,416.949,41.154,410.749,49.054,410.749z M367.754,333.449c14.6-8,43.2-21.8,58.8-27.9c7.8-3.1,15.5-2.9,22.6,1.9
		c-5.6,2-10.8,4.5-15.7,6.9c-16.4,8.2-45.3,23.9-59.4,33.8c-1.4,1-2.9,2-4.3,3c0.2-2.5,0.2-5.1-0.1-7.7c-0.3-3.3-1.1-6.4-2.1-9.4
		C367.554,333.849,367.654,333.649,367.754,333.449z M411.454,296.249c-11.3,5-33,12.6-43.3,18.3l-7,3.8c-0.7,0.4-1.3,0.8-1.9,1.3
		c-3.1-3.7-6.8-6.8-10.9-9.3c9.6-5.1,31-12,40.7-15.8C396.854,291.449,404.354,291.649,411.454,296.249z M115.054,233.049
		c0-5.8,4.7-10.5,10.5-10.5h261.7c5.8,0,10.5,4.7,10.5,10.5s-4.7,10.5-10.5,10.5h-261.8
		C119.754,243.549,115.054,238.849,115.054,233.049z M115.054,271.049c0-5.8,4.7-10.5,10.5-10.5h261.7c5.8,0,10.5,4.7,10.5,10.5
		s-4.7,10.5-10.5,10.5h-261.8C119.754,281.549,115.054,276.849,115.054,271.049z M319.654,118.349c0-8.2,6.7-14.9,14.9-14.9
		c8.2,0,14.9,6.7,14.9,14.9s-6.7,14.9-14.9,14.9C326.254,133.249,319.654,126.549,319.654,118.349z M163.354,118.349
		c0-8.2,6.7-14.9,14.9-14.9s14.9,6.7,14.9,14.9s-6.7,14.9-14.9,14.9C169.954,133.249,163.354,126.549,163.354,118.349z
		 M139.354,205.949h234c13.5,0,24.5-11,24.5-24.5v-126.2c0-13.5-11-24.5-24.5-24.5h-234c-13.5,0-24.5,11-24.5,24.5v126.2
		C114.854,194.949,125.854,205.949,139.354,205.949z M135.754,80.649c1.4,0.3,2.9,0.4,4.4,0.4c13.7,0,24.8-11.1,24.8-24.8
		c0-1.6-0.2-3.1-0.4-4.6h182.2c-0.5,1.9-0.8,4-0.8,6.1c0,13.7,11.1,24.8,24.8,24.8c2.1,0,4.2-0.3,6.1-0.8v76.1c-2-0.5-4-0.8-6.1-0.8
		c-13.7,0-24.8,11.1-24.8,24.8c0,1,0.1,2.1,0.2,3.1h-181.6c0.3-1.5,0.4-3,0.4-4.6c0-13.7-11.1-24.8-24.8-24.8
		c-1.5,0-2.9,0.1-4.4,0.4V80.649z M256.354,172.049c29.6,0,53.5-24,53.5-53.7s-24-53.7-53.5-53.7c-29.6,0-53.5,24-53.5,53.7
		S226.754,172.049,256.354,172.049z M224.954,121.249c0-1,0.8-1.9,1.9-1.9h5.1c0-1.1,0-2.2,0-3.4h-5.1c-1,0-1.9-0.8-1.9-1.9v-4.2
		c0-1,0.8-1.9,1.9-1.9h6.5l0.2-0.6c1.7-5.6,4.7-10.3,9.4-13.9c3.7-2.8,7.9-4.4,12.4-5.1c6.5-1,12.7-0.1,18.8,2.2
		c0.4,0.2,0.8,0.3,1.1,0.5c1.5,0.9,1.8,2,1.2,3.5c-0.7,1.6-1.4,3.3-2.1,4.9c-0.6,1.4-1.5,1.8-3,1.5c-2-0.5-4.1-1.1-6.1-1.5
		c-4.3-0.9-8.6-0.9-12.8,0.7c-3.6,1.4-5.8,4.2-7.3,7.6v0.1h12.4c1,0,1.9,0.8,1.9,1.9v4.2c0,1-0.8,1.9-1.9,1.9h-14.4
		c0,1.1,0,2.2,0,3.4h14.4c1,0,1.9,0.8,1.9,1.9v4.2c0,1-0.8,1.9-1.9,1.9h-13.1c1.6,4.5,4.2,8.1,9,9.6c3.9,1.2,7.8,1.1,11.7,0.3
		c2-0.4,4-1,6-1.5c1.6-0.4,2.4,0.1,3.1,1.5c0.7,1.6,1.4,3.3,2.1,5c0.6,1.5,0.2,2.7-1.3,3.4c-1.6,0.7-3.3,1.3-5,1.8
		c-6.5,1.8-13.1,1.9-19.5-0.2c-7.8-2.6-13-7.9-16.2-15.4c-0.6-1.5-1-3-1.4-4.5h-6.1c-1,0-1.9-0.8-1.9-1.9L224.954,121.249
		L224.954,121.249z"/>
</g>
<g>
</g>
<g>
</g>
<g>
</g>
<g>
</g>
<g>
</g>
<g>
</g>
<g>
</g>
<g>
</g>
<g>
</g>
<g>
</g>
<g>
</g>
<g>
</g>
<g>
</g>
<g>
</g>
<g>
</g>
</svg>
